<svg width="120" height="120" viewBox="0 0 120 120" fill="none" xmlns="http://www.w3.org/2000/svg">
    <path d="M110.75 9.8125L68.625 39.375L76.875 19.6875L110.75 9.8125Z" fill="#E17726" stroke="#E17726" stroke-width="0.25" stroke-linecap="round" stroke-linejoin="round"/>
    <path d="M9.25 9.8125L50.875 39.875L43.125 19.6875L9.25 9.8125Z" fill="#E27625" stroke="#E27625" stroke-width="0.25" stroke-linecap="round" stroke-linejoin="round"/>
    <path d="M95.5 82.75L84 100.375L108.125 107.125L115 83L95.5 82.75Z" fill="#E27625" stroke="#E27625" stroke-width="0.25" stroke-linecap="round" stroke-linejoin="round"/>
    <path d="M5.0625 83L11.875 107.125L36 100.375L24.5625 82.75L5.0625 83Z" fill="#E27625" stroke="#E27625" stroke-width="0.25" stroke-linecap="round" stroke-linejoin="round"/>
    <path d="M34.875 52.5L27.875 62.875L51.75 64L51 38.125L34.875 52.5Z" fill="#E27625" stroke="#E27625" stroke-width="0.25" stroke-linecap="round" stroke-linejoin="round"/>
    <path d="M85.125 52.5L68.75 37.875L68.25 64L92.125 62.875L85.125 52.5Z" fill="#E27625" stroke="#E27625" stroke-width="0.25" stroke-linecap="round" stroke-linejoin="round"/>
    <path d="M36 100.375L50.375 93.25L38.125 83.125L36 100.375Z" fill="#E27625" stroke="#E27625" stroke-width="0.25" stroke-linecap="round" stroke-linejoin="round"/>
    <path d="M69.625 93.25L84 100.375L81.875 83.125L69.625 93.25Z" fill="#E27625" stroke="#E27625" stroke-width="0.25" stroke-linecap="round" stroke-linejoin="round"/>
    <path d="M84 100.375L69.625 93.25L70.875 102.875L70.75 106.875L84 100.375Z" fill="#D5BFB2" stroke="#D5BFB2" stroke-width="0.25" stroke-linecap="round" stroke-linejoin="round"/>
    <path d="M36 100.375L49.25 106.875L49.1875 102.875L50.375 93.25L36 100.375Z" fill="#D5BFB2" stroke="#D5BFB2" stroke-width="0.25" stroke-linecap="round" stroke-linejoin="round"/>
    <path d="M49.5625 76.75L37.75 73.25L46 69.25L49.5625 76.75Z" fill="#233447" stroke="#233447" stroke-width="0.25" stroke-linecap="round" stroke-linejoin="round"/>
    <path d="M70.4375 76.75L74 69.25L82.3125 73.25L70.4375 76.75Z" fill="#233447" stroke="#233447" stroke-width="0.25" stroke-linecap="round" stroke-linejoin="round"/>
    <path d="M36 100.375L38.25 82.75L24.5625 83L36 100.375Z" fill="#CC6228" stroke="#CC6228" stroke-width="0.25" stroke-linecap="round" stroke-linejoin="round"/>
    <path d="M81.75 82.75L84 100.375L95.5 83L81.75 82.75Z" fill="#CC6228" stroke="#CC6228" stroke-width="0.25" stroke-linecap="round" stroke-linejoin="round"/>
    <path d="M92.125 62.875L68.25 64L70.4375 76.75L74 69.25L82.3125 73.25L92.125 62.875Z" fill="#CC6228" stroke="#CC6228" stroke-width="0.25" stroke-linecap="round" stroke-linejoin="round"/>
    <path d="M37.75 73.25L46 69.25L49.5625 76.75L51.75 64L27.875 62.875L37.75 73.25Z" fill="#CC6228" stroke="#CC6228" stroke-width="0.25" stroke-linecap="round" stroke-linejoin="round"/>
    <path d="M27.875 62.875L38.125 83.125L37.75 73.25L27.875 62.875Z" fill="#E27525" stroke="#E27525" stroke-width="0.25" stroke-linecap="round" stroke-linejoin="round"/>
    <path d="M82.3125 73.25L81.875 83.125L92.125 62.875L82.3125 73.25Z" fill="#E27525" stroke="#E27525" stroke-width="0.25" stroke-linecap="round" stroke-linejoin="round"/>
    <path d="M51.75 64L49.5625 76.75L52.375 91.875L52.9375 72.375L51.75 64Z" fill="#E27525" stroke="#E27525" stroke-width="0.25" stroke-linecap="round" stroke-linejoin="round"/>
    <path d="M68.25 64L67.125 72.3125L67.625 91.875L70.4375 76.75L68.25 64Z" fill="#E27525" stroke="#E27525" stroke-width="0.25" stroke-linecap="round" stroke-linejoin="round"/>
    <path d="M70.4375 76.75L67.625 91.875L69.625 93.25L81.875 83.125L82.3125 73.25L70.4375 76.75Z" fill="#F5841F" stroke="#F5841F" stroke-width="0.25" stroke-linecap="round" stroke-linejoin="round"/>
    <path d="M37.75 73.25L38.125 83.125L50.375 93.25L52.375 91.875L49.5625 76.75L37.75 73.25Z" fill="#F5841F" stroke="#F5841F" stroke-width="0.25" stroke-linecap="round" stroke-linejoin="round"/>
    <path d="M70.75 106.875L70.875 102.875L69.75 101.875H50.25L49.1875 102.875L49.25 106.875L36 100.375L40.75 104.25L50 110.188H70L79.25 104.25L84 100.375L70.75 106.875Z" fill="#C0AC9D" stroke="#C0AC9D" stroke-width="0.25" stroke-linecap="round" stroke-linejoin="round"/>
    <path d="M69.625 93.25L67.625 91.875H52.375L50.375 93.25L49.1875 102.875L50.25 101.875H69.75L70.875 102.875L69.625 93.25Z" fill="#161616" stroke="#161616" stroke-width="0.25" stroke-linecap="round" stroke-linejoin="round"/>
    <path d="M113.5 41.125L117 22.5L110.75 9.8125L69.625 38.125L85.125 52.5L107.625 59.125L112.625 53.25L110.5 51.75L114 48.75L111.5 46.75L115 44.25L113.5 41.125Z" fill="#763E1A" stroke="#763E1A" stroke-width="0.25" stroke-linecap="round" stroke-linejoin="round"/>
    <path d="M3 22.5L6.5625 41.125L4.9375 44.25L8.5 46.75L6 48.75L9.5 51.75L7.375 53.25L12.375 59.125L34.875 52.5L50.375 38.125L9.25 9.8125L3 22.5Z" fill="#763E1A" stroke="#763E1A" stroke-width="0.25" stroke-linecap="round" stroke-linejoin="round"/>
    <path d="M107.625 59.125L85.125 52.5L92.125 62.875L81.875 83.125L95.5 83H115L107.625 59.125Z" fill="#F5841F" stroke="#F5841F" stroke-width="0.25" stroke-linecap="round" stroke-linejoin="round"/>
    <path d="M34.875 52.5L12.375 59.125L5.0625 83H24.5625L38.125 83.125L27.875 62.875L34.875 52.5Z" fill="#F5841F" stroke="#F5841F" stroke-width="0.25" stroke-linecap="round" stroke-linejoin="round"/>
    <path d="M68.25 64L69.625 38.125L76.875 19.6875H43.125L50.375 38.125L51.75 64L52.3125 72.4375L52.375 91.875H67.625L67.6875 72.4375L68.25 64Z" fill="#F5841F" stroke="#F5841F" stroke-width="0.25" stroke-linecap="round" stroke-linejoin="round"/>
</svg>